# Blender 4.3.2
# www.blender.org
mtllib peg_four.mtl
o peg_four
v 0.004000 -0.004000 -0.000000
v 0.004000 -0.004000 0.100000
v -0.004000 -0.004000 0.000000
v -0.004000 -0.004000 0.100000
v 0.004000 0.004000 -0.000000
v 0.004000 0.004000 0.100000
v -0.004000 0.004000 0.000000
v -0.004000 0.004000 0.100000
vn -0.0000 1.0000 -0.0000
vn 1.0000 -0.0000 -0.0000
vn -0.0000 -1.0000 -0.0000
vn -1.0000 -0.0000 -0.0000
vn -0.0000 -0.0000 1.0000
vn -0.0000 -0.0000 -1.0000
vt 0.000000 0.000000
vt 0.800000 0.000000
vt 0.000000 4.500000
vt 0.800000 4.500000
vt 0.400000 0.400000
vt -0.400000 0.400000
vt 0.400000 -0.400000
vt -0.400000 -0.400000
s 1
usemtl 191,191,191.003
f 5/1/1 7/2/1 6/3/1
f 6/3/1 7/2/1 8/4/1
f 1/1/2 5/2/2 2/3/2
f 2/3/2 5/2/2 6/4/2
f 3/1/3 1/2/3 4/3/3
f 4/3/3 1/2/3 2/4/3
f 7/1/4 3/2/4 8/3/4
f 8/3/4 3/2/4 4/4/4
f 8/5/5 4/6/5 6/7/5
f 6/7/5 4/6/5 2/8/5
f 3/5/6 7/6/6 1/7/6
f 1/7/6 7/6/6 5/8/6
