# Blender 4.3.2
# www.blender.org
mtllib peg_eight.mtl
o eight
v 0.009657 -0.004000 0.000000
v 0.009657 0.004000 -0.000000
v 0.009657 -0.004000 0.100000
v 0.009657 0.004000 0.100000
v 0.004000 -0.009657 0.000000
v 0.004000 -0.009657 0.100000
v -0.004000 -0.009657 0.000000
v -0.004000 -0.009657 0.100000
v -0.009657 -0.004000 0.000000
v -0.009657 -0.004000 0.100000
v -0.009657 0.004000 -0.000000
v -0.009657 0.004000 0.100000
v -0.004000 0.009657 -0.000000
v -0.004000 0.009657 0.100000
v 0.004000 0.009657 -0.000000
v 0.004000 0.009657 0.100000
vn 1.0000 -0.0000 -0.0000
vn 0.7071 -0.7071 -0.0000
vn -0.0000 -1.0000 -0.0000
vn -0.7071 -0.7071 -0.0000
vn -1.0000 -0.0000 -0.0000
vn -0.7071 0.7071 -0.0000
vn -0.0000 1.0000 -0.0000
vn 0.7071 0.7071 -0.0000
vn -0.0000 -0.0000 1.0000
vn -0.0000 -0.0000 -1.0000
s 1
f 1//1 2//1 3//1
f 3//1 2//1 4//1
f 5//2 1//2 6//2
f 6//2 1//2 3//2
f 7//3 5//3 8//3
f 8//3 5//3 6//3
f 9//4 7//4 10//4
f 10//4 7//4 8//4
f 11//5 9//5 12//5
f 12//5 9//5 10//5
f 13//6 11//6 14//6
f 14//6 11//6 12//6
f 15//7 13//7 16//7
f 16//7 13//7 14//7
f 2//8 15//8 4//8
f 4//8 15//8 16//8
f 3//9 4//9 6//9
f 6//9 4//9 16//9
f 6//9 16//9 8//9
f 8//9 16//9 14//9
f 8//9 14//9 10//9
f 10//9 14//9 12//9
f 2//10 1//10 15//10
f 15//10 1//10 5//10
f 15//10 5//10 13//10
f 13//10 5//10 7//10
f 13//10 7//10 11//10
f 11//10 7//10 9//10
