# Blender 4.3.2
# www.blender.org
mtllib peg_lan.mtl
o peg_lan
v -0.004000 0.004000 0.000000
v -0.004000 0.004000 0.100000
v 0.002000 0.004000 0.000000
v 0.002000 0.004000 0.100000
v 0.002000 0.002000 0.000000
v 0.002000 0.002000 0.100000
v 0.004000 0.002000 0.000000
v 0.004000 0.002000 0.100000
v 0.002000 -0.002000 -0.000000
v 0.002000 -0.002000 0.100000
v 0.004000 -0.002000 -0.000000
v 0.004000 -0.002000 0.100000
v -0.004000 -0.004000 -0.000000
v -0.004000 -0.004000 0.100000
v 0.002000 -0.004000 -0.000000
v 0.002000 -0.004000 0.100000
vn 1.0000 -0.0000 -0.0000
vn -0.0000 1.0000 -0.0000
vn -0.0000 -1.0000 -0.0000
vn -1.0000 -0.0000 -0.0000
vn -0.0000 -0.0000 1.0000
vn -0.0000 -0.0000 -1.0000
vt 0.000000 0.000000
vt 0.200000 0.000000
vt 0.000000 4.500000
vt 0.200000 4.500000
vt 0.400000 0.000000
vt 0.400000 4.500000
vt 0.600000 0.000000
vt 0.600000 4.500000
vt 0.800000 0.000000
vt 0.800000 4.500000
vt -0.400000 0.200000
vt -0.400000 -0.400000
vt -0.200000 0.200000
vt 0.400000 -0.400000
vt 0.200000 0.200000
vt 0.400000 0.200000
vt 0.200000 0.400000
vt -0.200000 0.400000
s 1
usemtl 191,191,191.005
f 5/1/1 3/2/1 6/3/1
f 6/3/1 3/2/1 4/4/1
f 7/1/2 5/2/2 8/3/2
f 8/3/2 5/2/2 6/4/2
f 11/1/1 7/5/1 12/3/1
f 12/3/1 7/5/1 8/6/1
f 9/1/3 11/2/3 10/3/3
f 10/3/3 11/2/3 12/4/3
f 15/1/1 9/2/1 16/3/1
f 16/3/1 9/2/1 10/4/1
f 13/1/3 15/7/3 14/3/3
f 14/3/3 15/7/3 16/8/3
f 1/1/4 13/9/4 2/3/4
f 2/3/4 13/9/4 14/10/4
f 3/1/2 1/7/2 4/3/2
f 4/3/2 1/7/2 2/8/2
f 4/11/5 2/12/5 6/13/5
f 6/13/5 2/12/5 14/14/5
f 6/13/5 14/14/5 10/15/5
f 10/15/5 14/14/5 16/16/5
f 12/17/5 8/18/5 10/15/5
f 10/15/5 8/18/5 6/13/5
f 3/16/6 5/15/6 1/14/6
f 1/14/6 5/15/6 9/13/6
f 1/14/6 9/13/6 13/12/6
f 13/12/6 9/13/6 15/11/6
f 7/17/6 11/18/6 5/15/6
f 5/15/6 11/18/6 9/13/6
