# Blender 4.3.2
# www.blender.org
mtllib peg_five.mtl
o five
v 0.005506 -0.004000 0.000000
v 0.005506 0.004000 -0.000000
v 0.005506 -0.004000 0.100000
v 0.005506 0.004000 0.100000
v -0.002103 -0.006472 0.000000
v -0.002103 -0.006472 0.100000
v -0.006805 0.000000 0.000000
v -0.006805 0.000000 0.100000
v -0.002103 0.006472 -0.000000
v -0.002103 0.006472 0.100000
vn 1.0000 -0.0000 -0.0000
vn 0.3090 -0.9511 -0.0000
vn -0.8090 -0.5878 -0.0000
vn -0.8090 0.5878 -0.0000
vn 0.3090 0.9511 -0.0000
vn -0.0000 -0.0000 1.0000
vn -0.0000 -0.0000 -1.0000
s 1
f 1//1 2//1 3//1
f 3//1 2//1 4//1
f 5//2 1//2 6//2
f 6//2 1//2 3//2
f 7//3 5//3 8//3
f 8//3 5//3 6//3
f 9//4 7//4 10//4
f 10//4 7//4 8//4
f 2//5 9//5 4//5
f 4//5 9//5 10//5
f 3//6 4//6 6//6
f 6//6 4//6 10//6
f 6//6 10//6 8//6
f 2//7 1//7 9//7
f 9//7 1//7 5//7
f 9//7 5//7 7//7
